<?xml version="1.0" encoding="UTF-8"?>
<svg width="140" height="140" viewBox="0 0 140 140" xmlns="http://www.w3.org/2000/svg">
  <defs>
    <linearGradient id="fond" x1="0" y1="0" x2="1" y2="1">
      <stop offset="0" stop-color="#3b82f6"/>
      <stop offset="1" stop-color="#2563eb"/>
    </linearGradient>
  </defs>
  <rect width="140" height="140" rx="26" fill="url(#fond)"/>
  <!-- Deux bulles qui ne se ressemblent pas : deux avis, deux angles -->
  <g fill="#ffffff">
    <path d="M28 40c0-6 5-11 11-11h42c6 0 11 5 11 11v24c0 6-5 11-11 11H52l-16 13V75h-8c-6 0-11-5-11-11z" opacity="0.95"/>
  </g>
  <g fill="#ffffff" opacity="0.55">
    <path d="M60 78c0-6 5-11 11-11h30c6 0 11 5 11 11v18c0 6-5 11-11 11h-6l12 10-20-10H71c-6 0-11-5-11-11z"/>
  </g>
</svg>
